# xmcd CD database file
#
# Track frame offsets:
#	180
#	15908
#	38786
#	55521
#	72463
#	86541
#	100384
#	111498
#	128368
#	147121
#
# Disc length: 2180 seconds
#
# Revision: 5
# Processed by: cddbd v1.5.2PL0 Copyright (c) Steve Scherf et al.
# Submitted via: CDex 1.51
#
DISCID=7b08820a
DTITLE=Various Artist - New Country - Volume 4 - Number 3
DYEAR=1997
DGENRE=Country
TTITLE0=Jerry Jeff Walker - Down In Texas
TTITLE1=Kathy Mattea - Patiently Waiting
TTITLE2=John Jennings - Everybody Loves Me
TTITLE3=Don Williams - Leaving For The Flatlands
TTITLE4=Chris Wall - Runaway Cadillac
TTITLE5=Vern Gosdin - The Number
TTITLE6=Desperate Men - That Old Friend Of Mine
TTITLE7=Chris Smither - Winsome Smile
TTITLE8=Eddie Adcock - Lost At Sea
TTITLE9=The Holmes Brothers - You Got To Go
EXTD=YEAR: 1997
EXTT0=
EXTT1=
EXTT2=
EXTT3=
EXTT4=
EXTT5=
EXTT6=
EXTT7=
EXTT8=
EXTT9=
PLAYORDER=
